<svg width="25" height="25" viewBox="0 0 25 25" fill="none" xmlns="http://www.w3.org/2000/svg">
<path d="M7.5 9.25H8V8.75V7.5C8 6.30653 8.47411 5.16193 9.31802 4.31802C10.1619 3.47411 11.3065 3 12.5 3C13.6935 3 14.8381 3.47411 15.682 4.31802C16.5259 5.16193 17 6.30653 17 7.5V8.75V9.25H17.5H18.75H18.75C18.9347 9.24999 19.1128 9.31808 19.2504 9.44125C19.3879 9.56441 19.4752 9.73399 19.4955 9.9175L19.4956 9.91772L20.7455 21.1675C20.7455 21.1676 20.7456 21.1676 20.7456 21.1677C20.7571 21.2725 20.7465 21.3785 20.7143 21.4788C20.6822 21.5793 20.6292 21.6718 20.5588 21.7503L20.9313 22.0839L20.5588 21.7503C20.4885 21.8289 20.4023 21.8917 20.3061 21.9348C20.2098 21.9778 20.1055 22 20 22H20H5H4.99997C4.89451 22 4.79024 21.9778 4.69396 21.9348C4.59767 21.8917 4.51155 21.8289 4.4412 21.7503C4.37085 21.6718 4.31785 21.5793 4.28568 21.4788C4.2535 21.3784 4.24287 21.2723 4.25447 21.1675L5.50444 9.91772L5.50447 9.9175C5.52478 9.73398 5.61207 9.56441 5.74962 9.44125C5.88718 9.31808 6.06533 9.24999 6.24997 9.25H6.25H7.5ZM15 9.25H15.5V8.75V7.5C15.5 6.70435 15.1839 5.94129 14.6213 5.37868C14.0587 4.81607 13.2957 4.5 12.5 4.5C11.7044 4.5 10.9413 4.81607 10.3787 5.37868C9.81607 5.94129 9.5 6.70435 9.5 7.5V8.75V9.25H10H15ZM7.51257 13.7374L7.81561 13.4344L7.51257 13.7374C7.84075 14.0656 8.28587 14.25 8.75 14.25C9.21413 14.25 9.65925 14.0656 9.98744 13.7374C10.3156 13.4092 10.5 12.9641 10.5 12.5C10.5 12.0359 10.3156 11.5908 9.98744 11.2626C9.65925 10.9344 9.21413 10.75 8.75 10.75C8.28587 10.75 7.84075 10.9344 7.51257 11.2626L7.81561 11.5656L7.51257 11.2626C7.18438 11.5908 7 12.0359 7 12.5C7 12.9641 7.18438 13.4092 7.51257 13.7374ZM16.25 10.75C15.7859 10.75 15.3408 10.9344 15.0126 11.2626C14.6844 11.5908 14.5 12.0359 14.5 12.5C14.5 12.9641 14.6844 13.4092 15.0126 13.7374C15.3408 14.0656 15.7859 14.25 16.25 14.25C16.7141 14.25 17.1593 14.0656 17.4874 13.7374C17.8156 13.4092 18 12.9641 18 12.5C18 12.0359 17.8156 11.5908 17.4874 11.2626C17.1593 10.9344 16.7141 10.75 16.25 10.75Z" fill="#777777" stroke="#777777"/>
<circle cx="22" cy="3" r="3" fill="#EC534A"/>
</svg>
